<?xml version="1.0" encoding="UTF-8"?>
<svg width="25px" height="25px" viewBox="0 0 25 25" version="1.1" xmlns="http://www.w3.org/2000/svg" xmlns:xlink="http://www.w3.org/1999/xlink">
    <!-- Generator: Sketch 52.5 (67469) - http://www.bohemiancoding.com/sketch -->
    <title>plus</title>
    <desc>Created with Sketch.</desc>
    <g id="Page-1" stroke="none" stroke-width="1" fill="none" fill-rule="evenodd">
        <g id="plus" transform="translate(12.500000, 12.500000) scale(1, -1) translate(-12.500000, -12.500000) " fill="#000000">
            <path d="M24.0234375,11.5234375 L13.4765625,11.5234375 L13.4765625,0.9765625 C13.4765625,0.437207031 13.0393555,0 12.5,0 C11.9606445,0 11.5234375,0.437207031 11.5234375,0.9765625 L11.5234375,11.5234375 L0.9765625,11.5234375 C0.437207031,11.5234375 0,11.9606445 0,12.5 C0,13.0393555 0.437207031,13.4765625 0.9765625,13.4765625 L11.5234375,13.4765625 L11.5234375,24.0234375 C11.5234375,24.562793 11.9606445,25 12.5,25 C13.0393555,25 13.4765625,24.562793 13.4765625,24.0234375 L13.4765625,13.4765625 L24.0234375,13.4765625 C24.562793,13.4765625 25,13.0393555 25,12.5 C25,11.9606445 24.562793,11.5234375 24.0234375,11.5234375 Z" id="Path"></path>
        </g>
    </g>
</svg>